# xmcd
#
# Track frame offsets: 
#        150
#        12253
#        31022
#        53146
#        66812
#        83273
#        100732
#        117072
#        131138
#        145411
#        160431
#        176439
#        196823
#        213023
#        229893
#        247428
#
# Disc length: 3530 seconds
#
# Revision: 2
# Processed by: cddbd v1.5.2PL0 Copyright (c) Steve Scherf et al.
# Submitted via: ExactAudioCopy v1.0b3
#
DISCID=d30dc810
DTITLE=Faith Evans - Something About Faith
DYEAR=2010
DGENRE=Soul
TTITLE0=Something About Faith (Intro)
TTITLE1=I Still
TTITLE2=Way You Move Feat. Snoop Dogg
TTITLE3=Real Things
TTITLE4=Worth It
TTITLE5=Gone Already
TTITLE6=Party Feat. Redman
TTITLE7=Right Here
TTITLE8=Your Lover
TTITLE9=Can´T Stay Away Feat. Keyshia Cole
TTITLE10=Sunshine
TTITLE11=Everyday Struggle Feat. Raekwon
TTITLE12=The Love In Me
TTITLE13=Change
TTITLE14=Troubled World Feat. Kelly Price and Jessica Reedy
TTITLE15=Baby Lay
EXTD=
EXTT0=
EXTT1=
EXTT2=
EXTT3=
EXTT4=
EXTT5=
EXTT6=
EXTT7=
EXTT8=
EXTT9=
EXTT10=
EXTT11=
EXTT12=
EXTT13=
EXTT14=
EXTT15=
PLAYORDER=
